<svg aria-hidden="true" style="position: absolute; width: 0; height: 0; overflow: hidden;" version="1.1" xmlns="http://www.w3.org/2000/svg" xmlns:xlink="http://www.w3.org/1999/xlink">
<defs>
<symbol id="icon-image4" viewBox="0 0 32 32">
<path  d="M31.974 4.524c-0.064-0.191-0.227-0.332-0.427-0.362l-0.003-0-1.911-0.278-0.855-1.731c-0.179-0.365-0.777-0.365-0.956 0l-0.855 1.731-1.911 0.278c-0.26 0.039-0.457 0.26-0.457 0.528 0 0.15 0.062 0.285 0.161 0.382l1.383 1.348-0.326 1.903c-0.034 0.2 0.048 0.402 0.212 0.522 0.166 0.12 0.383 0.135 0.562 0.040l1.709-0.899 1.709 0.899c0.072 0.038 0.157 0.061 0.247 0.061 0.295 0 0.534-0.239 0.534-0.534 0-0.031-0.003-0.062-0.008-0.092l0 0.003-0.326-1.903 1.383-1.348c0.099-0.097 0.161-0.233 0.161-0.382 0-0.059-0.009-0.115-0.027-0.168l0.001 0.004zM29.511 5.851c-0.126 0.122-0.183 0.299-0.153 0.472l0.191 1.114-1-0.526c-0.072-0.039-0.158-0.062-0.249-0.062s-0.177 0.023-0.252 0.063l0.003-0.001-1 0.526 0.191-1.114c0.005-0.027 0.008-0.059 0.008-0.091 0-0.149-0.061-0.285-0.16-0.381l-0-0-0.811-0.79 1.119-0.162c0.174-0.025 0.324-0.134 0.402-0.292l0.5-1.013 0.5 1.013c0.078 0.158 0.228 0.267 0.402 0.292l1.119 0.162-0.809 0.79zM26.134 20.522h-1.067v1.067h1.067v-1.067zM26.134 22.656h-1.067v1.066h1.067v-1.066zM27.2 21.589h-1.067v1.067h1.067v-1.067zM25.067 21.589h-1.067v1.067h1.067v-1.067zM22.4 26.389h-1.067v1.067h1.067v-1.067zM22.4 28.523h-1.067v1.067h1.067v-1.067zM23.467 27.456h-1.067v1.067h1.067v-1.067zM21.334 27.456h-1.067v1.067h1.067v-1.067zM16 24.256h-1.066v1.067h1.066v-1.067zM16 26.389h-1.066v1.067h1.066v-1.067zM17.067 25.322h-1.067v1.067h1.067v-1.067zM14.934 25.322h-1.067v1.067h1.067v-1.067zM5.867 6.122h-1.066v1.066h1.066v-1.066zM5.867 8.256h-1.066v1.066h1.066v-1.066zM6.933 7.189h-1.067v1.067h1.066v-1.067zM4.8 7.189h-1.067v1.067h1.067v-1.067z"></path>
<path  d="M24.715 14.16c-0.28-0.376-0.699-0.636-1.179-0.703l-0.009-0.001c-0.076-0.012-0.164-0.018-0.254-0.018-0.411 0-0.789 0.139-1.090 0.373l0.004-0.003-1.253 0.96-1.898 1.417-1.358-0.541c2.421-1.086 4.113-3.508 4.113-6.32 0-3.823-3.122-6.934-6.961-6.934s-6.961 3.11-6.961 6.934c0 1.386 0.415 2.674 1.12 3.759l-2.768-0.024c-0.009 0-0.016 0.005-0.023 0.005-0.057 0.003-0.11 0.014-0.159 0.033l0.004-0.001c-0.013 0.005-0.026 0.007-0.038 0.013-0.006 0.003-0.013 0.003-0.019 0.006l-3.233 1.596c-0 0-0.001 0-0.001 0.001l-1.893 0.91c-0.024 0.011-0.045 0.023-0.065 0.036l0.001-0.001c-0.482 0.324-0.795 0.867-0.795 1.483 0 0.297 0.073 0.577 0.201 0.823l-0.005-0.010c0.22 0.424 0.592 0.742 1.043 0.885l0.013 0.003c0.161 0.053 0.345 0.083 0.537 0.083 0.308 0 0.598-0.078 0.851-0.216l-0.009 0.005 1.388-0.738 2.264-1.169 1.357-0.008-5.442 5.415c0 0.001-0.001 0.001-0.001 0.001l-1.339 1.333c-0.303 0.299-0.491 0.714-0.491 1.173 0 0.002 0 0.003 0 0.005v-0c0.002 0.919 0.748 1.664 1.667 1.664 0.001 0 0.002 0 0.002 0h-0c0.428 0 0.854-0.162 1.18-0.485l1.314-1.309 1.741-1.3 0.901 0.897-3.102 3.088c-0.303 0.299-0.491 0.714-0.491 1.173 0 0.001 0 0.003 0 0.004v-0c0 0.445 0.174 0.864 0.49 1.179 0.302 0.3 0.717 0.485 1.176 0.485 0.001 0 0.002 0 0.003 0h-0c0.427 0 0.855-0.162 1.18-0.485l4.488-4.472c0.007-0.006 0.016-0.009 0.022-0.016l5.166-5.658 3.471 0.494c0.025 0.004 0.050 0.006 0.075 0.006 0.064 0 0.127-0.016 0.187-0.038 0.017-0.006 0.032-0.015 0.049-0.023 0.019-0.010 0.039-0.015 0.058-0.027l3.213-2.133c0.012-0.008 0.018-0.021 0.029-0.030 0.013-0.010 0.029-0.014 0.041-0.026l1.271-1.191c0.348-0.326 0.564-0.787 0.564-1.3 0-0.4-0.132-0.769-0.355-1.066l0.003 0.005zM2.13 17.77c-0.098 0.054-0.215 0.086-0.34 0.086-0.078 0-0.153-0.013-0.224-0.036l0.005 0.001c-0.294-0.093-0.504-0.364-0.504-0.683 0-0.235 0.114-0.444 0.289-0.575l0.002-0.001 1.314-0.632 0.316 0.924 0.133 0.389-0.992 0.527zM5.627 15.942l-1.548 0.8-0.255-0.746-0.184-0.537 2.027-1.001-0.040 1.484zM20.727 9.322c0 0.918-0.219 1.785-0.599 2.56l-4.181-1.899c-0.044-0.575-0.342-1.072-0.782-1.384l-0.006-0.004 1.464-4.861c2.377 0.757 4.104 2.975 4.104 5.588zM8.938 9.322c0-3.235 2.644-5.867 5.894-5.867 0.253 0 0.5 0.022 0.745 0.053l-1.432 4.753c-0.019 0-0.037-0.006-0.057-0.006-0 0-0.001 0-0.001 0-1.032 0-1.869 0.835-1.872 1.867v0c0.003 1.031 0.84 1.867 1.872 1.867 0 0 0 0 0.001 0h-0c0.695 0 1.295-0.383 1.618-0.944l3.863 1.755c-1.075 1.447-2.795 2.39-4.737 2.39-3.25 0-5.894-2.632-5.894-5.867zM14.895 10.122c0 0.441-0.362 0.8-0.806 0.8-0 0-0.001 0-0.001 0-0.443 0-0.802-0.358-0.804-0.8v-0c0-0.441 0.361-0.8 0.806-0.8s0.806 0.359 0.806 0.8zM2.464 25.146c-0.11 0.109-0.261 0.176-0.428 0.176s-0.317-0.067-0.427-0.175l0 0c-0.109-0.108-0.176-0.257-0.176-0.422s0.067-0.314 0.176-0.422l0-0 0.962-0.959 0.852 0.848-0.959 0.954zM5.678 28.88c-0.11 0.109-0.261 0.176-0.428 0.176s-0.317-0.067-0.427-0.175l0 0c-0.109-0.108-0.176-0.257-0.176-0.422s0.067-0.314 0.176-0.422l0-0 0.963-0.959 0.852 0.848-0.96 0.955zM9.16 25.411l-0.001 0.001-1.765 1.76-0.852-0.848 1.765-1.757c0.040-0.040 0.065-0.088 0.090-0.136 0.007-0.014 0.020-0.026 0.026-0.040 0.016-0.041 0.019-0.085 0.026-0.128 0.003-0.025 0.014-0.048 0.014-0.073 0-0.035-0.013-0.070-0.020-0.105-0.006-0.032-0.006-0.064-0.019-0.096-0.025-0.053-0.055-0.098-0.092-0.138l0 0c-0.010-0.012-0.014-0.026-0.025-0.038h-0.001s0-0.001-0.001-0.002l-1.607-1.6c-0.017-0.017-0.039-0.024-0.058-0.038-0.025-0.021-0.054-0.040-0.084-0.056l-0.003-0.001c-0.026-0.012-0.058-0.023-0.090-0.031l-0.003-0.001c-0.030-0.009-0.065-0.017-0.101-0.020l-0.002-0c-0.007-0-0.015-0-0.023-0-0.026 0-0.051 0.002-0.075 0.005l0.003-0c-0.036 0.005-0.069 0.009-0.104 0.021s-0.064 0.027-0.094 0.045c-0.020 0.011-0.043 0.015-0.061 0.029l-1.774 1.324-0.901-0.897 2.399-2.386 4.36 4.289-0.928 0.919zM15.979 18.394c-0.016-0.002-0.030 0.004-0.046 0.003-0.008-0-0.017-0.001-0.027-0.001-0.031 0-0.062 0.003-0.092 0.008l0.003-0c-0.070 0.011-0.132 0.035-0.187 0.070l0.002-0.001c-0.030 0.018-0.057 0.037-0.083 0.061-0.013 0.011-0.028 0.016-0.040 0.029l-4.698 5.146-4.328-4.256 2.833-2.818c0.096-0.097 0.156-0.23 0.156-0.377 0-0.295-0.239-0.534-0.534-0.534-0.001 0-0.001 0-0.002 0h0l-2.219 0.013 0.028-1.607 3.104 0.027c1.264 1.297 3.027 2.101 4.978 2.101 0.001 0 0.002 0 0.003 0h-0c0.438 0 0.864-0.046 1.28-0.122 0.040 0.032 0.080 0.064 0.129 0.085l2.41 0.96 0.152 0.758 0.178 0.886-3.003-0.427zM20.020 18.572l-0.313-1.558 1.446-1.080 0.946 1.257-2.080 1.381zM23.773 15.741l-0.837 0.785-0.931-1.236 0.831-0.637c0.155-0.119 0.351-0.168 0.543-0.143 0.193 0.027 0.364 0.128 0.48 0.284 0.088 0.117 0.141 0.265 0.141 0.426 0 0.206-0.087 0.391-0.226 0.521l-0 0z"></path>
<path  d="M13.602 18.544l-2.143-2.134c-0.096-0.096-0.229-0.155-0.376-0.155s-0.28 0.059-0.376 0.155l-2.143 2.133c-0.097 0.097-0.156 0.23-0.156 0.378s0.060 0.281 0.156 0.378l-0-0 2.142 2.134c0.096 0.096 0.229 0.156 0.376 0.156s0.28-0.059 0.376-0.156v0l2.143-2.134c0.097-0.097 0.157-0.23 0.157-0.378s-0.060-0.281-0.157-0.378l-0-0zM11.083 20.303l-1.387-1.381 1.386-1.381 1.387 1.381-1.387 1.381zM17.164 5.071l-0.258 1.036c0.071 0.018 1.738 0.452 1.738 2.149h1.067c0-2.017-1.666-2.965-2.547-3.184zM19.711 9.322h-1.067v1.066h1.067v-1.066z"></path>
</symbol>
<symbol id="icon-image3" viewBox="0 0 41 32">
<path d="M2.073 31.932h33.167c0 0 0 0 0.001 0 1.145 0 2.073-0.928 2.073-2.073v0-2.764c0-1.145-0.928-2.073-2.073-2.073v0h-0.691v-17.233l3.925-3.718c0.269 0.135 0.586 0.215 0.921 0.215 1.151 0 2.085-0.933 2.085-2.085s-0.933-2.085-2.085-2.085c-1.151 0-2.085 0.933-2.085 2.085 0 0.32 0.072 0.623 0.201 0.894l-0.005-0.013-2.957 2.803v-1.594c0-1.145-0.928-2.073-2.073-2.073v0h-27.64c-1.145 0-2.073 0.928-2.073 2.073v20.73h-0.691c-1.145 0-2.073 0.928-2.073 2.073v0 2.764c0 1.145 0.928 2.073 2.073 2.073v0zM39.387 1.529c0.382 0 0.691 0.309 0.691 0.691s-0.309 0.691-0.691 0.691v0c-0.382 0-0.691-0.309-0.691-0.691s0.309-0.691 0.691-0.691v0zM4.146 4.293c0-0.382 0.309-0.691 0.691-0.691h27.64c0.382 0 0.691 0.309 0.691 0.691v2.902l-1.382 1.313v-2.833c0-0.382-0.31-0.692-0.692-0.692h-24.875c-0.382 0-0.692 0.309-0.692 0.691v17.275c0 0.382 0.31 0.691 0.692 0.691h24.875c0.382 0 0.692-0.309 0.692-0.691v-12.541l1.382-1.31v15.923h-29.022v-20.728zM10.365 13.276c-0.002 0-0.004 0-0.006 0-1.145 0-2.073 0.928-2.073 2.073s0.928 2.073 2.073 2.073c0.56 0 1.069-0.222 1.442-0.584l-0.001 0.001 2.402 1.205c0.279 0.139 0.617 0.074 0.825-0.159l5.106-5.744 5.019 3.761c0.27 0.201 0.645 0.18 0.889-0.051l4.362-4.132v10.54h-23.493v-15.893h23.493v3.449l-4.889 4.63-5.061-3.794c-0.114-0.086-0.259-0.139-0.415-0.139-0.205 0-0.389 0.089-0.516 0.231l-0.001 0.001-5.176 5.824-1.935-0.968c0.014-0.083 0.023-0.167 0.026-0.251 0-1.145-0.928-2.073-2.073-2.073v0zM11.056 15.349c0 0.382-0.309 0.691-0.691 0.691s-0.691-0.309-0.691-0.691v0c0-0.382 0.309-0.691 0.691-0.691s0.691 0.309 0.691 0.691v0zM15.202 26.405h6.91v0.691c0 0.382-0.309 0.691-0.69 0.691h-5.528c-0.382 0-0.691-0.309-0.691-0.691v0-0.691zM1.383 27.096c0-0.382 0.309-0.691 0.69-0.691h11.747v0.691c0 1.145 0.928 2.073 2.073 2.073v0h5.528c1.145 0 2.073-0.928 2.073-2.073v0-0.691h11.747c0.382 0 0.691 0.309 0.691 0.691v2.764c0 0.382-0.309 0.691-0.691 0.691h-33.167c-0 0-0 0-0.001 0-0.382 0-0.691-0.309-0.691-0.691 0 0 0 0 0 0v0-2.764z"></path>
</symbol>
<symbol id="icon-image2" viewBox="0 0 31 32">
<path d="M30.839 15.301c-0.001-8.452-6.855-15.303-15.308-15.301s-15.303 6.855-15.301 15.308c0.002 6.788 4.422 12.543 10.541 14.545l0.108 0.031c0.061 0.019 0.123 0.029 0.187 0.029 0.12 0 0.238-0.032 0.342-0.094 0.135-0.080 0.236-0.207 0.283-0.357l3.865-12.25c1.054-0.004 1.906-0.859 1.906-1.913 0-1.056-0.856-1.913-1.913-1.913-0.303 0-0.59 0.071-0.845 0.196l0.011-0.005-5.106-5.107c-0.114-0.11-0.271-0.179-0.443-0.179-0.352 0-0.638 0.286-0.638 0.638 0 0.172 0.068 0.328 0.179 0.443l-0-0 5.103 5.109c-0.121 0.241-0.191 0.525-0.191 0.825 0 0.602 0.283 1.137 0.724 1.481l0.004 0.003-3.683 11.673c-7.278-2.681-11.004-10.754-8.324-18.032s10.754-11.004 18.032-8.323c7.278 2.681 11.004 10.754 8.323 18.032-1.345 3.581-4.003 6.406-7.374 7.938l-0.088 0.036-0.398-1.874c-0.063-0.291-0.318-0.506-0.624-0.506-0.164 0-0.313 0.062-0.426 0.163l0.001-0.001-3.837 3.426c-0.132 0.117-0.214 0.287-0.214 0.477 0 0.283 0.185 0.524 0.441 0.606l0.005 0.001 4.899 1.563c0.058 0.020 0.126 0.031 0.196 0.031 0.352 0 0.637-0.285 0.637-0.637 0-0.047-0.005-0.093-0.015-0.138l0.001 0.004-0.391-1.839c5.528-2.374 9.328-7.772 9.328-14.057 0-0.011 0-0.023-0-0.034v0.002zM15.535 14.664c0.352 0 0.638 0.286 0.638 0.638s-0.286 0.638-0.638 0.638v0c-0.352 0-0.638-0.286-0.638-0.638s0.286-0.638 0.638-0.638v0zM17.635 29.528l2.184-1.948 0.603 2.84-2.787-0.892z"></path>
</symbol>
<symbol id="icon-image1" viewBox="0 0 32 32">
<path  d="M30.773 22.098l-8.443-8.505 0.937-4.616c0.225 0.090 0.485 0.144 0.758 0.146h0.007c0.008 0 0.017 0 0.026 0 1.192 0 2.159-0.967 2.159-2.159s-0.967-2.159-2.159-2.159c-1.192 0-2.159 0.967-2.159 2.159 0 0.259 0.046 0.508 0.13 0.739l-0.005-0.015-4.96 0.606-8.091-8.133c-0.096-0.098-0.229-0.159-0.376-0.16h-0c-0.14 0.001-0.274 0.057-0.373 0.155l-1.512 1.504c-0.096 0.097-0.156 0.23-0.156 0.377s0.060 0.281 0.156 0.377v0l0.814 0.825c-1.143 2.062-1.816 4.522-1.816 7.139 0 4.106 1.656 7.824 4.336 10.525l-0.001-0.001c0.043 0.041 0.092 0.074 0.146 0.097-0.032 0.164-0.051 0.353-0.052 0.546v6.188h-6.4c-1.472 0.001-2.666 1.194-2.667 2.666v1.067c0 0.295 0.239 0.534 0.534 0.534h24.534c0.294 0 0.533-0.239 0.533-0.534v-1.067c-0.002-1.472-1.195-2.665-2.666-2.666h-6.4v-2.742c1.003 0.21 2.024 0.317 3.049 0.32 2.58-0.003 5.005-0.663 7.117-1.822l-0.077 0.039 0.818 0.823c0.099 0.101 0.235 0.159 0.376 0.16 0.14-0.001 0.274-0.057 0.373-0.155l1.512-1.504c0.096-0.097 0.156-0.23 0.156-0.377s-0.060-0.281-0.156-0.377v0zM23.28 6.233c0.193-0.192 0.459-0.31 0.752-0.31 0.589 0 1.067 0.478 1.067 1.066s-0.477 1.066-1.067 1.066c-0 0-0 0-0 0h-0.004c-0.587-0.003-1.061-0.479-1.061-1.066 0-0.295 0.12-0.563 0.314-0.756l0-0h-0.002zM22.024 9.737l-0.598 2.946-1.175-1.183 1.774-1.763zM21.419 8.835l-1.92 1.909-1.486-1.493 3.406-0.416zM24.004 28.8c0.884 0 1.6 0.716 1.6 1.6v0 0.534h-23.466v-0.534c0-0.884 0.716-1.6 1.6-1.6v0h20.267zM16.538 26.666v1.067h-5.334v-1.067h5.334zM11.204 25.6v-4.053c0-1.294 1.196-2.346 2.667-2.346s2.667 1.053 2.667 2.346v4.053h-5.334zM17.604 23.904v-2.357c0-1.882-1.675-3.413-3.733-3.413-0.017-0-0.038-0-0.058-0-1.353 0-2.54 0.707-3.213 1.771l-0.009 0.016c-2.36-2.482-3.812-5.846-3.812-9.55 0-2.314 0.567-4.496 1.569-6.414l-0.036 0.077 18.602 18.709c-1.823 0.947-3.979 1.502-6.266 1.502-1.079 0-2.128-0.124-3.136-0.357l0.093 0.018zM28.893 23.22l-21.057-21.181 0.754-0.752 7.935 7.98c0.004 0 0.006 0.007 0.010 0.010l13.114 13.191-0.757 0.752z"></path>
<path  d="M13.876 20.267h-0.005c-0.001 0-0.002 0-0.002 0-0.884 0-1.6 0.716-1.6 1.6s0.715 1.599 1.597 1.6h0.005c0.001 0 0.001 0 0.002 0 0.884 0 1.6-0.716 1.6-1.6s-0.715-1.599-1.598-1.6h-0zM14.249 22.245c-0.096 0.096-0.229 0.155-0.376 0.155-0.295 0-0.534-0.239-0.534-0.534s0.238-0.533 0.532-0.533h0c0.293 0.001 0.531 0.239 0.531 0.533 0 0.148-0.060 0.282-0.157 0.378l-0 0h0.005z"></path>
</symbol>
<symbol id="main" viewBox="0 0 32 32">
<path d="M32 3.223l-3.223-3.223-12.777 12.777-12.777-12.777-3.223 3.223 12.777 12.777-12.777 12.777 3.223 3.223 12.777-12.777 12.777 12.777 3.223-3.223-12.777-12.777 12.777-12.777z"></path>
</symbol>
</defs>
</svg>
<svg aria-hidden="true" style="position: absolute; width: 0; height: 0; overflow: hidden;" version="1.1" xmlns="http://www.w3.org/2000/svg" xmlns:xlink="http://www.w3.org/1999/xlink">
<defs>
<symbol id="icon-Vector-2" viewBox="0 0 32 32">
<path d="M32 3.223l-3.223-3.223-12.777 12.777-12.777-12.777-3.223 3.223 12.777 12.777-12.777 12.777 3.223 3.223 12.777-12.777 12.777 12.777 3.223-3.223-12.777-12.777 12.777-12.777z"></path>
</symbol>
<symbol id="icon-close" viewBox="0 0 32 32">
<path d="M26.667 7.303l-1.97-1.97-7.808 7.808-7.808-7.808-1.97 1.97 7.808 7.808-7.808 7.808 1.97 1.97 7.808-7.808 7.808 7.808 1.97-1.97-7.808-7.808 7.808-7.808z"></path>
</symbol>
<symbol id="icon-close-1" viewBox="0 0 32 32">
<path fill="#fff" style="fill: var(--color1, #fff)" d="M32 16c0 8.837-7.163 16-16 16s-16-7.163-16-16c0-8.837 7.163-16 16-16s16 7.163 16 16z"></path>
<path fill="none" stroke="#000" style="stroke: var(--color2, #000)" stroke-linejoin="miter" stroke-linecap="butt" stroke-miterlimit="4" stroke-width="1.0667" d="M31.467 16c0 8.542-6.925 15.467-15.467 15.467s-15.467-6.925-15.467-15.467c0-8.542 6.925-15.467 15.467-15.467s15.467 6.925 15.467 15.467z"></path>
<path fill="#000" style="fill: var(--color2, #000)" d="M22.4 10.782l-1.182-1.182-4.685 4.685-4.685-4.685-1.182 1.182 4.685 4.685-4.685 4.685 1.182 1.182 4.685-4.685 4.685 4.685 1.182-1.182-4.685-4.685 4.685-4.685z"></path>
</symbol>
<symbol id="icon-button-3" viewBox="0 0 115 32">
<path fill="#2196f3" style="fill: var(--color1, #2196f3)" d="M4.414 0h105.931c1.219 0 2.207 0.988 2.207 2.207v23.172c0 1.219-0.988 2.207-2.207 2.207h-105.931c-1.219 0-2.207-0.988-2.207-2.207v-23.172c0-1.219 0.988-2.207 2.207-2.207z"></path>
<path fill="#fff" style="fill: var(--color2, #fff)" d="M26.186 10.276v6.276h-1.293v-5.263h-2.522v5.263h-1.293v-6.276h5.108zM29.077 11.888v4.664h-1.246v-4.664h1.246zM27.754 10.672c0-0.181 0.063-0.33 0.19-0.448s0.296-0.177 0.509-0.177c0.21 0 0.378 0.059 0.504 0.177 0.129 0.118 0.194 0.267 0.194 0.448s-0.065 0.33-0.194 0.448c-0.126 0.118-0.295 0.177-0.504 0.177-0.213 0-0.382-0.059-0.509-0.177s-0.19-0.267-0.19-0.448zM31.473 11.888h1.241l-0.039 1.56c-0.011 0.5-0.069 0.93-0.172 1.289s-0.241 0.661-0.414 0.905-0.369 0.44-0.59 0.586c-0.218 0.144-0.448 0.251-0.69 0.323h-0.233l-0.013-0.957 0.129-0.013c0.147-0.152 0.267-0.3 0.362-0.444 0.095-0.147 0.168-0.3 0.22-0.461s0.089-0.341 0.112-0.539c0.026-0.198 0.042-0.428 0.047-0.69l0.039-1.56zM31.809 11.888h3.091v4.664h-1.237v-3.668h-1.853v-0.996zM30.292 15.582h5.276v2.371h-1.241v-1.401h-2.763v1.401h-1.272v-2.371zM39.818 11.888v0.974h-2.259v-0.974h2.259zM37.917 11.888v4.664h-1.241v-4.664h1.241zM40.723 11.888v4.664h-1.246v-4.664h1.246zM43.446 14.819l1.565-2.931h1.241v4.664h-1.241v-2.935l-1.565 2.935h-1.241v-4.664h1.241v2.931zM49.666 15.668c0.152 0 0.287-0.029 0.405-0.086 0.118-0.060 0.21-0.144 0.276-0.25 0.069-0.109 0.105-0.237 0.108-0.384h1.168c-0.003 0.328-0.090 0.619-0.263 0.875-0.172 0.253-0.404 0.453-0.694 0.599-0.29 0.144-0.615 0.215-0.974 0.215-0.362 0-0.678-0.060-0.948-0.181-0.267-0.121-0.49-0.287-0.668-0.5-0.178-0.216-0.312-0.466-0.401-0.75-0.089-0.287-0.134-0.595-0.134-0.922v-0.125c0-0.33 0.045-0.638 0.134-0.922 0.089-0.287 0.223-0.537 0.401-0.75 0.178-0.216 0.401-0.384 0.668-0.504s0.58-0.181 0.94-0.181c0.382 0 0.717 0.073 1.004 0.22 0.29 0.147 0.517 0.356 0.681 0.629 0.167 0.27 0.251 0.591 0.254 0.961h-1.168c-0.003-0.155-0.036-0.296-0.099-0.422-0.060-0.126-0.149-0.227-0.267-0.302-0.115-0.078-0.257-0.116-0.427-0.116-0.181 0-0.329 0.039-0.444 0.116-0.115 0.075-0.204 0.178-0.267 0.31-0.063 0.129-0.108 0.277-0.134 0.444-0.023 0.164-0.034 0.336-0.034 0.517v0.125c0 0.181 0.011 0.355 0.034 0.522s0.066 0.315 0.129 0.444c0.066 0.129 0.157 0.231 0.272 0.306s0.264 0.112 0.448 0.112zM55.389 15.5v-2.078c0-0.149-0.024-0.277-0.073-0.384-0.049-0.109-0.125-0.194-0.228-0.254-0.101-0.060-0.231-0.091-0.392-0.091-0.138 0-0.257 0.024-0.358 0.073-0.101 0.046-0.178 0.114-0.233 0.203-0.055 0.086-0.082 0.188-0.082 0.306h-1.241c0-0.198 0.046-0.386 0.138-0.565s0.226-0.335 0.401-0.47c0.175-0.138 0.384-0.246 0.625-0.323 0.244-0.078 0.517-0.116 0.819-0.116 0.362 0 0.684 0.060 0.965 0.181s0.503 0.302 0.664 0.543c0.164 0.241 0.246 0.543 0.246 0.905v1.996c0 0.256 0.015 0.466 0.047 0.629 0.031 0.161 0.077 0.302 0.138 0.422v0.073h-1.255c-0.060-0.126-0.106-0.284-0.138-0.474-0.029-0.193-0.043-0.385-0.043-0.578zM55.553 13.711l0.009 0.703h-0.694c-0.164 0-0.306 0.019-0.427 0.056s-0.22 0.090-0.297 0.159c-0.078 0.066-0.135 0.144-0.172 0.233-0.034 0.089-0.052 0.187-0.052 0.293s0.024 0.203 0.073 0.289c0.049 0.083 0.119 0.149 0.211 0.198 0.092 0.046 0.2 0.069 0.323 0.069 0.187 0 0.349-0.037 0.487-0.112s0.244-0.167 0.319-0.276c0.077-0.109 0.118-0.213 0.12-0.31l0.328 0.526c-0.046 0.118-0.109 0.24-0.19 0.366-0.077 0.126-0.177 0.246-0.297 0.358-0.12 0.109-0.266 0.2-0.435 0.272-0.17 0.069-0.371 0.103-0.603 0.103-0.296 0-0.565-0.059-0.806-0.177-0.239-0.121-0.428-0.286-0.569-0.496-0.138-0.213-0.207-0.454-0.207-0.724 0-0.244 0.046-0.461 0.138-0.651s0.227-0.349 0.405-0.478c0.181-0.132 0.407-0.231 0.677-0.297 0.27-0.069 0.583-0.103 0.94-0.103h0.72zM60.432 11.888v4.664h-1.246v-4.664h1.246zM61.932 11.888v0.961h-4.225v-0.961h4.225zM64.332 14.819l1.565-2.931h1.241v4.664h-1.241v-2.935l-1.565 2.935h-1.241v-4.664h1.241v2.931zM70.552 15.668c0.152 0 0.287-0.029 0.405-0.086 0.118-0.060 0.21-0.144 0.276-0.25 0.069-0.109 0.105-0.237 0.108-0.384h1.169c-0.003 0.328-0.091 0.619-0.263 0.875-0.173 0.253-0.404 0.453-0.694 0.599-0.29 0.144-0.615 0.215-0.974 0.215-0.362 0-0.679-0.060-0.948-0.181-0.268-0.121-0.49-0.287-0.668-0.5-0.178-0.216-0.312-0.466-0.401-0.75-0.089-0.287-0.134-0.595-0.134-0.922v-0.125c0-0.33 0.045-0.638 0.134-0.922 0.089-0.287 0.223-0.537 0.401-0.75 0.178-0.216 0.401-0.384 0.668-0.504s0.58-0.181 0.94-0.181c0.382 0 0.717 0.073 1.004 0.22 0.29 0.147 0.518 0.356 0.681 0.629 0.167 0.27 0.251 0.591 0.254 0.961h-1.169c-0.003-0.155-0.036-0.296-0.099-0.422-0.061-0.126-0.15-0.227-0.268-0.302-0.115-0.078-0.257-0.116-0.426-0.116-0.181 0-0.329 0.039-0.444 0.116-0.115 0.075-0.204 0.178-0.267 0.31-0.063 0.129-0.108 0.277-0.134 0.444-0.023 0.164-0.035 0.336-0.035 0.517v0.125c0 0.181 0.012 0.355 0.035 0.522s0.066 0.315 0.129 0.444c0.066 0.129 0.157 0.231 0.271 0.306s0.264 0.112 0.449 0.112zM74.762 14.224h1.258l-1.298 2.328h-1.254l1.293-2.328zM75.598 11.888h2.047v4.664h-1.241v-3.703h-0.806c-0.169 0-0.31 0.032-0.422 0.095-0.113 0.060-0.196 0.139-0.25 0.237-0.051 0.095-0.077 0.193-0.077 0.293 0 0.098 0.026 0.193 0.077 0.284s0.132 0.168 0.242 0.228c0.109 0.060 0.246 0.090 0.409 0.090h1.289v0.845h-1.289c-0.307 0-0.583-0.037-0.828-0.112-0.241-0.075-0.448-0.178-0.621-0.31-0.169-0.135-0.3-0.292-0.392-0.47-0.089-0.181-0.134-0.379-0.134-0.595 0-0.224 0.046-0.43 0.138-0.616s0.224-0.351 0.397-0.491c0.172-0.141 0.381-0.249 0.625-0.323 0.247-0.078 0.526-0.116 0.836-0.116z"></path>
<path fill="#fff" style="fill: var(--color2, #fff)" d="M97.103 7.172l-13.241 7.448 4.232 1.567 6.527-6.119-4.964 6.698 0.004 0.002-0.005-0.002v3.647l2.373-2.769 3.006 1.113 2.069-11.586z"></path>
</symbol>

</defs>
</svg>

